<svg width="1078.8" height="100.005" viewBox="0 0 1078.8 100.005" xmlns="http://www.w3.org/2000/svg"><g id="svgGroup" stroke-linecap="round" fill-rule="evenodd" font-size="9pt" stroke="#f70606" stroke-width="0.25mm" fill="#e80000" style="stroke:#f70606;stroke-width:0.25mm;fill:#e80000"><path d="M 955.5 91.402 Q 952.645 91.402 952.054 94.106 A 7.506 7.506 0 0 0 951.9 95.702 Q 951.9 96.624 952.088 97.381 A 4.494 4.494 0 0 0 952.7 98.802 A 3.397 3.397 0 0 0 952.99 99.179 A 2.33 2.33 0 0 0 954.8 100.002 A 17.539 17.539 0 0 0 966.79 95.533 A 24.509 24.509 0 0 0 971.3 90.102 Q 974.5 94.702 979.45 97.352 A 21.737 21.737 0 0 0 983.324 98.967 A 24.267 24.267 0 0 0 990.5 100.002 A 26.896 26.896 0 0 0 992.792 99.906 A 21.784 21.784 0 0 0 1002.55 96.752 Q 1007.8 93.502 1010.85 87.802 A 24.884 24.884 0 0 0 1012.935 82.527 A 29.158 29.158 0 0 0 1013.9 74.902 A 31.379 31.379 0 0 0 1013.706 71.375 A 25.077 25.077 0 0 0 1010.85 62.102 Q 1007.8 56.502 1002.5 53.252 A 21.504 21.504 0 0 0 998.305 51.263 A 23.62 23.62 0 0 0 990.5 50.002 A 27.055 27.055 0 0 0 989.564 50.018 A 22.534 22.534 0 0 0 978.45 53.252 Q 973.1 56.502 970 62.102 A 23.906 23.906 0 0 0 967.775 67.703 A 28.585 28.585 0 0 0 966.9 74.902 Q 966.9 77.402 967.3 79.802 Q 966.183 82.493 964.821 84.63 A 21.238 21.238 0 0 1 961.95 88.252 Q 958.8 91.402 955.5 91.402 Q 958.313 91.402 958.397 95.541 A 12.76 12.76 0 0 1 958.4 95.802 A 6.19 6.19 0 0 1 958.277 97.07 Q 958.059 98.115 957.45 98.852 A 3.101 3.101 0 0 1 955.374 99.966 A 4.493 4.493 0 0 1 954.8 100.002 A 18.902 18.902 0 0 1 949.33 99.242 A 15.447 15.447 0 0 1 943.85 96.302 A 19.43 19.43 0 0 1 939.113 90.371 A 26.433 26.433 0 0 1 937.3 86.002 A 32.899 32.899 0 0 1 933.261 91.574 A 24.693 24.693 0 0 1 927 96.602 A 27.57 27.57 0 0 1 920.491 99.255 A 23.009 23.009 0 0 1 914.7 100.002 A 4.489 4.489 0 0 0 915.635 99.91 A 2.76 2.76 0 0 0 917.45 98.702 Q 918.3 97.402 918.3 95.802 Q 918.3 94.202 917.7 92.802 A 2.135 2.135 0 0 0 916.291 91.519 A 3.165 3.165 0 0 0 915.4 91.402 A 8.591 8.591 0 0 1 913.801 91.261 A 5.475 5.475 0 0 1 909.85 88.452 A 10.961 10.961 0 0 1 908.888 86.065 Q 908.2 83.623 908.2 80.202 L 908.2 50.902 A 13.096 13.096 0 0 0 907.114 50.591 A 14.586 14.586 0 0 0 903.7 50.202 Q 902.4 50.202 901.2 50.402 A 19.105 19.105 0 0 0 900.887 50.457 Q 900.424 50.542 900.01 50.642 A 11.407 11.407 0 0 0 899.1 50.902 L 899.1 55.002 A 15.113 15.113 0 0 0 897.007 53.26 A 17.956 17.956 0 0 0 893.4 51.352 Q 890 50.002 886.5 50.002 A 25.095 25.095 0 0 0 885.655 50.016 A 20.655 20.655 0 0 0 874.75 53.402 A 22.82 22.82 0 0 0 871.463 56.035 A 24.793 24.793 0 0 0 866.6 62.702 Q 863.6 68.602 863.6 76.202 Q 863.6 77.602 863.7 79.002 A 38.831 38.831 0 0 1 863.174 80.295 Q 862.211 82.547 861.066 84.395 A 21.441 21.441 0 0 1 858.25 88.052 A 16.181 16.181 0 0 1 857.378 88.887 Q 854.546 91.402 851.6 91.402 Q 848.745 91.402 848.154 94.106 A 7.506 7.506 0 0 0 848 95.702 Q 848 96.624 848.188 97.381 A 4.494 4.494 0 0 0 848.8 98.802 A 3.397 3.397 0 0 0 849.09 99.179 A 2.33 2.33 0 0 0 850.9 100.002 Q 861 100.002 867.2 90.402 Q 870 94.902 874.45 97.452 Q 878.9 100.002 884.7 100.002 A 23.326 23.326 0 0 0 885.685 99.981 A 19.733 19.733 0 0 0 894.35 97.652 Q 898.7 95.302 901.6 91.202 A 17.877 17.877 0 0 0 902.167 92.549 Q 905.681 100.002 914.7 100.002 A 2.288 2.288 0 0 1 912.904 99.161 A 3.506 3.506 0 0 1 912.6 98.752 A 4.955 4.955 0 0 1 911.917 96.999 A 6.854 6.854 0 0 1 911.8 95.702 A 6.571 6.571 0 0 1 911.927 94.375 Q 912.101 93.528 912.517 92.868 A 3.967 3.967 0 0 1 912.7 92.602 A 2.908 2.908 0 0 1 914.55 91.478 A 4.502 4.502 0 0 1 915.4 91.402 Q 917.343 91.402 919.74 90.495 A 21.626 21.626 0 0 0 921.15 89.902 Q 924.4 88.402 927.5 84.802 Q 930.6 81.202 932.6 75.052 A 36.321 36.321 0 0 0 933.876 69.651 Q 934.329 66.867 934.498 63.637 A 77.008 77.008 0 0 0 934.6 59.602 L 934.6 50.002 L 927.2 50.002 A 7.641 7.641 0 0 1 926.721 48.449 Q 926.569 47.694 926.522 46.821 A 15.068 15.068 0 0 1 926.5 46.002 A 13.629 13.629 0 0 1 926.598 44.314 Q 926.763 43.002 927.2 42.002 L 934.6 42.002 L 934.6 24.302 A 10.537 10.537 0 0 1 936.486 23.811 Q 937.414 23.654 938.477 23.615 A 19.598 19.598 0 0 1 939.2 23.602 Q 941.6 23.602 943.8 24.302 L 943.8 42.002 L 958.7 42.002 A 7.049 7.049 0 0 1 959.274 43.677 Q 959.443 44.462 959.486 45.374 A 13.468 13.468 0 0 1 959.5 46.002 Q 959.5 48.402 958.7 50.002 L 943.8 50.002 L 943.8 70.702 A 52.766 52.766 0 0 0 944.083 76.364 Q 944.718 82.232 946.779 85.927 A 15.425 15.425 0 0 0 946.85 86.052 A 12.163 12.163 0 0 0 949.119 88.98 A 9.043 9.043 0 0 0 955.5 91.402 Z M 756.2 66.202 L 756.2 51.402 A 11.407 11.407 0 0 1 757.11 51.142 Q 757.524 51.042 757.987 50.957 A 19.105 19.105 0 0 1 758.3 50.902 Q 759.5 50.702 760.8 50.702 Q 763.1 50.702 765.3 51.402 L 765.3 74.502 Q 765.3 83.202 768.1 87.152 A 8.997 8.997 0 0 0 773.62 90.754 A 14.501 14.501 0 0 0 776.9 91.102 Q 788.829 91.102 790.807 76.558 A 47.358 47.358 0 0 0 791.2 70.202 L 791.2 51.402 A 7.758 7.758 0 0 1 791.856 51.191 Q 792.223 51.089 792.649 51.003 A 16.072 16.072 0 0 1 793.2 50.902 Q 794.4 50.702 795.7 50.702 Q 798.1 50.702 800.3 51.402 L 800.3 80.202 Q 800.3 83.623 800.988 86.065 A 10.961 10.961 0 0 0 801.95 88.452 A 5.475 5.475 0 0 0 805.901 91.261 A 8.591 8.591 0 0 0 807.5 91.402 A 3.165 3.165 0 0 1 808.391 91.519 A 2.135 2.135 0 0 1 809.8 92.802 Q 810.4 94.202 810.4 95.802 Q 810.4 97.402 809.55 98.702 A 2.76 2.76 0 0 1 807.735 99.91 A 4.489 4.489 0 0 1 806.8 100.002 A 22.752 22.752 0 0 0 818.516 96.718 A 32.334 32.334 0 0 0 824.8 91.802 A 16.093 16.093 0 0 0 827.274 94.797 A 19.09 19.09 0 0 0 831.3 97.702 A 18.044 18.044 0 0 0 835.501 99.353 A 21.659 21.659 0 0 0 840.9 100.002 A 5.307 5.307 0 0 0 841.863 99.919 Q 844.6 99.414 844.6 95.802 A 8.423 8.423 0 0 0 844.574 95.13 Q 844.452 93.601 843.75 92.652 Q 843.324 92.076 842.76 91.788 A 2.734 2.734 0 0 0 841.5 91.502 A 13.963 13.963 0 0 1 840.216 91.444 A 11.281 11.281 0 0 1 835.3 89.852 A 9.515 9.515 0 0 1 832.83 87.672 A 11.67 11.67 0 0 1 831.2 84.902 A 126.834 126.834 0 0 0 833.224 82.173 A 112.085 112.085 0 0 0 847.5 55.702 A 98.376 98.376 0 0 0 850.255 47.159 A 80.839 80.839 0 0 0 853.2 25.902 A 58.875 58.875 0 0 0 852.917 19.966 Q 852.109 12.009 849 6.902 Q 844.8 0.002 837 0.002 Q 833.1 0.002 829.85 1.602 A 12.032 12.032 0 0 0 826.688 3.871 A 15.388 15.388 0 0 0 824.4 6.802 A 21.745 21.745 0 0 0 823.6 8.195 A 24.764 24.764 0 0 0 821.95 12.152 A 29.525 29.525 0 0 0 821.61 13.289 Q 821.248 14.588 820.945 16.095 A 57.737 57.737 0 0 0 820.4 19.302 A 62.719 62.719 0 0 0 820.121 21.563 Q 819.936 23.31 819.806 25.333 A 137.583 137.583 0 0 0 819.6 29.702 A 326.244 326.244 0 0 0 819.495 33.84 Q 819.4 38.683 819.4 44.802 L 819.5 44.902 L 819.4 44.902 Q 819.4 54.902 819.6 62.002 A 283.327 283.327 0 0 0 819.749 66.234 Q 819.941 70.664 820.25 74.102 A 102.72 102.72 0 0 0 820.383 75.482 Q 820.813 79.622 821.5 82.802 A 38.283 38.283 0 0 1 818.175 86.178 A 28.285 28.285 0 0 1 814.3 89.102 A 20.465 20.465 0 0 1 813.085 89.802 Q 811.764 90.503 810.51 90.896 A 10.365 10.365 0 0 1 807.4 91.402 A 4.211 4.211 0 0 0 807.106 91.412 A 3.082 3.082 0 0 0 804.85 92.552 A 3.598 3.598 0 0 0 804.454 93.143 Q 804.148 93.713 804.011 94.434 A 6.8 6.8 0 0 0 803.9 95.702 Q 803.9 96.624 804.088 97.381 A 4.494 4.494 0 0 0 804.7 98.802 A 3.397 3.397 0 0 0 804.99 99.179 A 2.33 2.33 0 0 0 806.8 100.002 Q 797.728 100.002 794.193 92.501 A 17.576 17.576 0 0 1 793.8 91.602 Q 791 95.702 786.6 97.852 A 20.537 20.537 0 0 1 781.144 99.59 A 28.288 28.288 0 0 1 776.2 100.002 A 22.92 22.92 0 0 1 769.284 99.025 Q 762.086 96.753 758.8 89.202 A 24.216 24.216 0 0 1 756.93 92.104 A 19.09 19.09 0 0 1 755.2 94.102 Q 752.5 96.802 748.95 98.402 A 18.396 18.396 0 0 1 741.316 100.002 A 21.366 21.366 0 0 1 741.3 100.002 Q 739.9 100.002 739.15 98.652 Q 738.4 97.302 738.4 95.702 A 5.764 5.764 0 0 1 738.665 93.927 A 5.06 5.06 0 0 1 739.25 92.702 A 2.76 2.76 0 0 1 741.065 91.493 A 4.489 4.489 0 0 1 742 91.402 Q 744.1 91.402 746.5 90.102 Q 748.83 88.84 750.876 86.259 A 21.092 21.092 0 0 0 751 86.102 Q 753.9 82.102 755.05 76.702 A 51.679 51.679 0 0 0 756.145 68.447 A 46.161 46.161 0 0 0 756.2 66.202 Z M 148.6 55.002 L 148.6 50.902 A 11.407 11.407 0 0 1 149.51 50.642 Q 149.924 50.542 150.387 50.457 A 19.105 19.105 0 0 1 150.7 50.402 Q 151.9 50.202 153.2 50.202 A 14.586 14.586 0 0 1 156.614 50.591 A 13.096 13.096 0 0 1 157.7 50.902 L 157.7 80.202 Q 157.7 83.623 158.388 86.065 A 10.961 10.961 0 0 0 159.35 88.452 A 5.475 5.475 0 0 0 163.301 91.261 A 8.591 8.591 0 0 0 164.9 91.402 A 3.165 3.165 0 0 1 165.791 91.519 A 2.135 2.135 0 0 1 167.2 92.802 Q 167.8 94.202 167.8 95.802 Q 167.8 97.402 166.95 98.702 A 2.76 2.76 0 0 1 165.135 99.91 A 4.489 4.489 0 0 1 164.2 100.002 A 22.752 22.752 0 0 0 175.916 96.718 A 32.334 32.334 0 0 0 182.2 91.802 A 16.093 16.093 0 0 0 184.674 94.797 A 19.09 19.09 0 0 0 188.7 97.702 A 18.044 18.044 0 0 0 192.901 99.353 A 21.659 21.659 0 0 0 198.3 100.002 A 5.307 5.307 0 0 0 199.263 99.919 Q 202 99.414 202 95.802 A 8.423 8.423 0 0 0 201.974 95.13 Q 201.852 93.601 201.15 92.652 Q 200.724 92.076 200.16 91.788 A 2.734 2.734 0 0 0 198.9 91.502 A 13.963 13.963 0 0 1 197.616 91.444 A 11.281 11.281 0 0 1 192.7 89.852 A 9.515 9.515 0 0 1 190.23 87.672 A 11.67 11.67 0 0 1 188.6 84.902 A 126.834 126.834 0 0 0 190.624 82.173 A 112.085 112.085 0 0 0 204.9 55.702 A 98.376 98.376 0 0 0 207.655 47.159 A 80.839 80.839 0 0 0 210.6 25.902 A 58.875 58.875 0 0 0 210.317 19.966 Q 209.509 12.009 206.4 6.902 Q 202.2 0.002 194.4 0.002 Q 190.5 0.002 187.25 1.602 A 12.032 12.032 0 0 0 184.088 3.871 A 15.388 15.388 0 0 0 181.8 6.802 A 21.745 21.745 0 0 0 181 8.195 A 24.764 24.764 0 0 0 179.35 12.152 A 29.525 29.525 0 0 0 179.01 13.289 Q 178.648 14.588 178.345 16.095 A 57.737 57.737 0 0 0 177.8 19.302 A 62.719 62.719 0 0 0 177.521 21.563 Q 177.336 23.31 177.206 25.333 A 137.583 137.583 0 0 0 177 29.702 A 326.244 326.244 0 0 0 176.895 33.84 Q 176.8 38.683 176.8 44.802 L 176.9 44.902 L 176.8 44.902 Q 176.8 54.902 177 62.002 A 283.327 283.327 0 0 0 177.149 66.234 Q 177.341 70.664 177.65 74.102 A 102.72 102.72 0 0 0 177.783 75.482 Q 178.213 79.622 178.9 82.802 A 38.283 38.283 0 0 1 175.575 86.178 A 28.285 28.285 0 0 1 171.7 89.102 A 20.465 20.465 0 0 1 170.485 89.802 Q 169.164 90.503 167.91 90.896 A 10.365 10.365 0 0 1 164.8 91.402 A 4.211 4.211 0 0 0 164.506 91.412 A 3.082 3.082 0 0 0 162.25 92.552 A 3.598 3.598 0 0 0 161.854 93.143 Q 161.548 93.713 161.411 94.434 A 6.8 6.8 0 0 0 161.3 95.702 Q 161.3 96.624 161.488 97.381 A 4.494 4.494 0 0 0 162.1 98.802 A 3.397 3.397 0 0 0 162.39 99.179 A 2.33 2.33 0 0 0 164.2 100.002 Q 155.181 100.002 151.667 92.549 A 17.877 17.877 0 0 1 151.1 91.202 Q 148.2 95.302 143.85 97.652 A 19.733 19.733 0 0 1 135.185 99.981 A 23.326 23.326 0 0 1 134.2 100.002 Q 128.4 100.002 123.95 97.452 Q 119.5 94.902 116.7 90.402 Q 110.5 100.002 100.4 100.002 A 2.33 2.33 0 0 1 98.59 99.179 A 3.397 3.397 0 0 1 98.3 98.802 A 4.494 4.494 0 0 1 97.688 97.381 Q 97.5 96.624 97.5 95.702 A 7.506 7.506 0 0 1 97.654 94.106 Q 98.245 91.402 101.1 91.402 Q 104.046 91.402 106.878 88.887 A 16.181 16.181 0 0 0 107.75 88.052 A 21.441 21.441 0 0 0 110.566 84.395 Q 111.711 82.547 112.674 80.295 A 38.831 38.831 0 0 0 113.2 79.002 Q 113.1 77.602 113.1 76.202 Q 113.1 68.602 116.1 62.702 A 24.793 24.793 0 0 1 120.963 56.035 A 22.82 22.82 0 0 1 124.25 53.402 A 20.655 20.655 0 0 1 135.155 50.016 A 25.095 25.095 0 0 1 136 50.002 Q 139.5 50.002 142.9 51.352 A 17.956 17.956 0 0 1 146.507 53.26 A 15.113 15.113 0 0 1 148.6 55.002 Z M 633.8 55.002 L 633.8 50.902 A 11.407 11.407 0 0 1 634.71 50.642 Q 635.124 50.542 635.587 50.457 A 19.105 19.105 0 0 1 635.9 50.402 Q 637.1 50.202 638.4 50.202 A 14.586 14.586 0 0 1 641.814 50.591 A 13.096 13.096 0 0 1 642.9 50.902 L 642.9 80.202 Q 642.9 83.623 643.588 86.065 A 10.961 10.961 0 0 0 644.55 88.452 A 5.475 5.475 0 0 0 648.501 91.261 A 8.591 8.591 0 0 0 650.1 91.402 A 3.165 3.165 0 0 1 650.991 91.519 A 2.135 2.135 0 0 1 652.4 92.802 Q 653 94.202 653 95.802 Q 653 97.402 652.15 98.702 A 2.76 2.76 0 0 1 650.335 99.91 A 4.489 4.489 0 0 1 649.4 100.002 A 22.752 22.752 0 0 0 661.116 96.718 A 32.334 32.334 0 0 0 667.4 91.802 A 16.093 16.093 0 0 0 669.874 94.797 A 19.09 19.09 0 0 0 673.9 97.702 A 18.044 18.044 0 0 0 678.101 99.353 A 21.659 21.659 0 0 0 683.5 100.002 A 5.307 5.307 0 0 0 684.463 99.919 Q 687.2 99.414 687.2 95.802 A 8.423 8.423 0 0 0 687.174 95.13 Q 687.052 93.601 686.35 92.652 Q 685.924 92.076 685.36 91.788 A 2.734 2.734 0 0 0 684.1 91.502 A 13.963 13.963 0 0 1 682.816 91.444 A 11.281 11.281 0 0 1 677.9 89.852 A 9.515 9.515 0 0 1 675.43 87.672 A 11.67 11.67 0 0 1 673.8 84.902 A 126.834 126.834 0 0 0 675.824 82.173 A 112.085 112.085 0 0 0 690.1 55.702 A 98.376 98.376 0 0 0 692.855 47.159 A 80.839 80.839 0 0 0 695.8 25.902 A 58.875 58.875 0 0 0 695.517 19.966 Q 694.709 12.009 691.6 6.902 Q 687.4 0.002 679.6 0.002 Q 675.7 0.002 672.45 1.602 A 12.032 12.032 0 0 0 669.288 3.871 A 15.388 15.388 0 0 0 667 6.802 A 21.745 21.745 0 0 0 666.2 8.195 A 24.764 24.764 0 0 0 664.55 12.152 A 29.525 29.525 0 0 0 664.21 13.289 Q 663.848 14.588 663.545 16.095 A 57.737 57.737 0 0 0 663 19.302 A 62.719 62.719 0 0 0 662.721 21.563 Q 662.536 23.31 662.406 25.333 A 137.583 137.583 0 0 0 662.2 29.702 A 326.244 326.244 0 0 0 662.095 33.84 Q 662 38.683 662 44.802 L 662.1 44.902 L 662 44.902 Q 662 54.902 662.2 62.002 A 283.327 283.327 0 0 0 662.349 66.234 Q 662.541 70.664 662.85 74.102 A 102.72 102.72 0 0 0 662.983 75.482 Q 663.413 79.622 664.1 82.802 A 38.283 38.283 0 0 1 660.775 86.178 A 28.285 28.285 0 0 1 656.9 89.102 A 20.465 20.465 0 0 1 655.685 89.802 Q 654.364 90.503 653.11 90.896 A 10.365 10.365 0 0 1 650 91.402 A 4.211 4.211 0 0 0 649.706 91.412 A 3.082 3.082 0 0 0 647.45 92.552 A 3.598 3.598 0 0 0 647.054 93.143 Q 646.748 93.713 646.611 94.434 A 6.8 6.8 0 0 0 646.5 95.702 Q 646.5 96.624 646.688 97.381 A 4.494 4.494 0 0 0 647.3 98.802 A 3.397 3.397 0 0 0 647.59 99.179 A 2.33 2.33 0 0 0 649.4 100.002 Q 640.381 100.002 636.867 92.549 A 17.877 17.877 0 0 1 636.3 91.202 Q 633.4 95.302 629.05 97.652 A 19.733 19.733 0 0 1 620.385 99.981 A 23.326 23.326 0 0 1 619.4 100.002 Q 613.6 100.002 609.15 97.452 Q 604.7 94.902 601.9 90.402 Q 595.7 100.002 585.6 100.002 A 2.33 2.33 0 0 1 583.79 99.179 A 3.397 3.397 0 0 1 583.5 98.802 A 4.494 4.494 0 0 1 582.888 97.381 Q 582.7 96.624 582.7 95.702 A 7.506 7.506 0 0 1 582.854 94.106 Q 583.445 91.402 586.3 91.402 Q 589.246 91.402 592.078 88.887 A 16.181 16.181 0 0 0 592.95 88.052 A 21.441 21.441 0 0 0 595.766 84.395 Q 596.911 82.547 597.874 80.295 A 38.831 38.831 0 0 0 598.4 79.002 Q 598.3 77.602 598.3 76.202 Q 598.3 68.602 601.3 62.702 A 24.793 24.793 0 0 1 606.163 56.035 A 22.82 22.82 0 0 1 609.45 53.402 A 20.655 20.655 0 0 1 620.355 50.016 A 25.095 25.095 0 0 1 621.2 50.002 Q 624.7 50.002 628.1 51.352 A 17.956 17.956 0 0 1 631.707 53.26 A 15.113 15.113 0 0 1 633.8 55.002 Z M 372 77.302 L 375 65.602 A 34.562 34.562 0 0 1 377.34 59.24 Q 381.92 50.002 391 50.002 A 11.648 11.648 0 0 1 399.575 53.649 A 15.386 15.386 0 0 1 400.05 54.152 A 13.962 13.962 0 0 1 403.205 60.212 Q 403.744 62.351 403.795 64.875 A 26.268 26.268 0 0 1 403.8 65.402 L 403.8 80.502 Q 403.8 87.549 406.475 90.04 A 5.25 5.25 0 0 0 410.2 91.402 A 10.147 10.147 0 0 0 415.898 89.622 A 14.247 14.247 0 0 0 417.8 88.102 Q 421.3 84.802 423.45 79.452 A 30.319 30.319 0 0 0 425.598 68.382 A 34.417 34.417 0 0 0 425.6 68.002 L 425.6 66.402 A 22.589 22.589 0 0 1 422.128 64.741 Q 420.201 63.595 418.8 62.148 A 13.521 13.521 0 0 1 418.3 61.602 A 15.867 15.867 0 0 1 419.404 57.024 A 14.623 14.623 0 0 1 420 55.752 Q 421.4 53.102 423.45 51.552 A 9.359 9.359 0 0 1 424.842 50.669 Q 425.661 50.252 426.456 50.096 A 4.878 4.878 0 0 1 427.4 50.002 A 4.383 4.383 0 0 1 430.502 51.321 Q 431.175 51.964 431.767 52.92 A 14.084 14.084 0 0 1 432.75 54.852 A 23.247 23.247 0 0 1 434.077 59.23 Q 434.8 62.749 434.8 67.202 A 44.396 44.396 0 0 1 433.769 76.95 A 36.557 36.557 0 0 1 431.45 83.952 A 32.182 32.182 0 0 1 427.208 90.967 A 26.668 26.668 0 0 1 422.3 95.702 Q 416.5 100.002 409.2 100.002 A 15.224 15.224 0 0 1 404.393 99.277 A 12.439 12.439 0 0 1 398.6 95.252 Q 395.093 90.981 394.74 84.001 A 31.616 31.616 0 0 1 394.7 82.402 L 394.7 66.702 A 23.802 23.802 0 0 0 394.619 64.661 Q 394.375 61.839 393.4 60.452 A 5.186 5.186 0 0 0 392.494 59.447 A 3.478 3.478 0 0 0 390.2 58.602 A 4.232 4.232 0 0 0 387.196 59.844 A 6.256 6.256 0 0 0 386.6 60.502 A 9.119 9.119 0 0 0 385.702 61.914 Q 384.889 63.461 384.216 65.811 A 36.188 36.188 0 0 0 384 66.602 L 380.3 81.002 Q 378.651 87.281 376.197 91.408 A 20.084 20.084 0 0 1 373.1 95.452 A 15.529 15.529 0 0 1 364.017 99.81 A 21.532 21.532 0 0 1 361.1 100.002 A 2.33 2.33 0 0 1 359.29 99.179 A 3.397 3.397 0 0 1 359 98.802 A 4.494 4.494 0 0 1 358.388 97.381 Q 358.2 96.624 358.2 95.702 A 7.506 7.506 0 0 1 358.354 94.106 Q 358.945 91.402 361.8 91.402 Q 364.855 91.402 367.317 88.44 A 13.084 13.084 0 0 0 367.55 88.152 A 14.894 14.894 0 0 0 369.044 85.767 Q 370.315 83.294 371.396 79.551 A 64.401 64.401 0 0 0 372 77.302 Z M 554.7 100.002 Q 544.5 100.002 537.15 95.502 Q 529.8 91.002 525.9 82.902 A 38.39 38.39 0 0 1 522.694 72.6 A 52.102 52.102 0 0 1 522 63.902 A 53.749 53.749 0 0 1 522.934 53.653 A 40.804 40.804 0 0 1 526.25 43.552 A 34.502 34.502 0 0 1 532.97 34.019 A 31.551 31.551 0 0 1 538.1 29.902 A 30.818 30.818 0 0 1 553.084 25.078 A 37.638 37.638 0 0 1 555.5 25.002 A 33.543 33.543 0 0 1 565.156 26.358 A 30.095 30.095 0 0 1 569.75 28.152 Q 576.2 31.302 580.2 36.902 Q 579.7 38.702 577.65 40.602 A 14.131 14.131 0 0 1 576.12 41.844 Q 575.247 42.451 574.383 42.818 A 7.553 7.553 0 0 1 573.6 43.102 Q 570 38.402 565.4 36.202 Q 560.8 34.002 555.5 34.002 A 23.073 23.073 0 0 0 548.05 35.172 A 20.576 20.576 0 0 0 543 37.702 A 23.584 23.584 0 0 0 535.809 45.629 A 29.213 29.213 0 0 0 534.6 48.002 A 32.517 32.517 0 0 0 532.174 56.123 A 44.066 44.066 0 0 0 531.6 63.402 Q 531.6 71.702 534.35 77.902 A 22.456 22.456 0 0 0 538.94 84.717 A 20.945 20.945 0 0 0 542.45 87.552 A 21.152 21.152 0 0 0 550.049 90.515 A 29.184 29.184 0 0 0 555.5 91.002 A 27.986 27.986 0 0 0 561.202 90.447 A 20.997 20.997 0 0 0 567.1 88.302 A 28.969 28.969 0 0 0 573.612 83.351 A 35.556 35.556 0 0 0 576 80.702 A 10.119 10.119 0 0 1 577.895 81.535 Q 578.73 82.003 579.583 82.654 A 17.677 17.677 0 0 1 579.9 82.902 A 14.463 14.463 0 0 1 581.133 84.002 Q 581.735 84.609 582.165 85.216 A 6.808 6.808 0 0 1 582.7 86.102 Q 578.1 92.902 570.85 96.452 Q 563.6 100.002 554.7 100.002 Z M 0 98.602 L 0 26.402 L 23.9 26.402 A 38.528 38.528 0 0 1 32.616 27.36 A 33.856 33.856 0 0 1 36.35 28.452 Q 42.1 30.502 45.65 35.102 Q 48.953 39.382 49.183 46.172 A 30.442 30.442 0 0 1 49.2 47.202 A 24.473 24.473 0 0 1 48.76 51.961 A 17.751 17.751 0 0 1 46.9 57.152 A 21.196 21.196 0 0 1 42.304 62.905 A 20.059 20.059 0 0 1 41 63.952 Q 37.4 66.602 33.3 68.102 L 51.2 93.202 A 8.417 8.417 0 0 1 49.662 95.728 A 11.194 11.194 0 0 1 48.35 97.002 A 10.671 10.671 0 0 1 45.58 98.687 A 9.58 9.58 0 0 1 43.9 99.202 L 23.3 70.302 A 24.225 24.225 0 0 1 21.77 70.394 A 20.862 20.862 0 0 1 21.2 70.402 L 9.3 70.402 L 9.3 98.602 A 17.272 17.272 0 0 1 5.756 99.258 A 15.4 15.4 0 0 1 4.6 99.302 A 15.634 15.634 0 0 1 1.772 99.055 A 13.058 13.058 0 0 1 0 98.602 Z M 1069.8 65.002 L 1069.8 81.102 A 33.071 33.071 0 0 0 1069.902 83.805 Q 1070.119 86.432 1070.793 88.081 A 6.63 6.63 0 0 0 1071.25 89.002 A 4.754 4.754 0 0 0 1074.717 91.31 A 7.31 7.31 0 0 0 1075.9 91.402 Q 1077.3 91.402 1078.05 92.602 Q 1078.8 93.802 1078.8 95.802 Q 1078.8 97.402 1077.95 98.702 A 2.76 2.76 0 0 1 1076.135 99.91 A 4.489 4.489 0 0 1 1075.2 100.002 Q 1060.7 100.002 1060.7 82.202 L 1060.7 66.702 Q 1060.7 63.24 1060.108 61.376 A 5.331 5.331 0 0 0 1059.7 60.402 Q 1058.7 58.602 1056.1 58.602 Q 1055.214 58.602 1054.134 58.795 A 15.462 15.462 0 0 0 1054.1 58.802 A 47.033 47.033 0 0 0 1053.456 58.924 Q 1052.579 59.097 1051.136 59.402 A 397.538 397.538 0 0 0 1050.2 59.602 Q 1045.3 60.602 1042.8 60.802 Q 1042.9 62.402 1042.9 64.002 Q 1042.9 74.433 1040.008 82.345 A 39.301 39.301 0 0 1 1039.8 82.902 A 34.428 34.428 0 0 1 1036.599 89.3 A 25.607 25.607 0 0 1 1031.05 95.502 Q 1025.4 100.002 1017.9 100.002 A 2.33 2.33 0 0 1 1016.09 99.179 A 3.397 3.397 0 0 1 1015.8 98.802 A 4.494 4.494 0 0 1 1015.188 97.381 Q 1015 96.624 1015 95.702 A 7.506 7.506 0 0 1 1015.154 94.106 Q 1015.745 91.402 1018.6 91.402 A 10.05 10.05 0 0 0 1025.066 89.038 A 14.106 14.106 0 0 0 1026.45 87.752 A 20.835 20.835 0 0 0 1029.377 83.748 Q 1030.49 81.798 1031.381 79.428 A 38.327 38.327 0 0 0 1031.95 77.802 A 41.415 41.415 0 0 0 1033.712 69.38 A 52.36 52.36 0 0 0 1034 63.802 Q 1034 62.002 1033.8 60.502 A 23.04 23.04 0 0 0 1033.636 59.447 Q 1033.545 58.947 1033.441 58.52 A 10.625 10.625 0 0 0 1033.3 58.002 A 6.614 6.614 0 0 1 1032.723 57.332 Q 1032.072 56.477 1031.35 55.102 Q 1030.3 53.102 1029.55 50.852 A 20.559 20.559 0 0 1 1029.157 49.536 Q 1028.831 48.287 1028.803 47.374 A 5.522 5.522 0 0 1 1028.8 47.202 Q 1029.936 45.404 1032.37 44.367 A 11.918 11.918 0 0 1 1032.65 44.252 A 10.302 10.302 0 0 1 1036.365 43.541 Q 1037.263 43.531 1038.211 43.66 A 14.269 14.269 0 0 1 1038.5 43.702 Q 1040.4 47.202 1041.6 52.502 A 24.048 24.048 0 0 0 1043.68 52.332 Q 1046.194 52.027 1049.7 51.202 Q 1052.431 50.604 1054.252 50.335 A 30.977 30.977 0 0 1 1054.85 50.252 Q 1056.343 50.06 1057.514 50.015 A 17.951 17.951 0 0 1 1058.2 50.002 Q 1063.6 50.002 1066.7 54.052 Q 1069.364 57.532 1069.739 63.117 A 28.164 28.164 0 0 1 1069.8 65.002 Z M 294 98.602 L 249.4 98.602 L 249.4 26.402 A 17.791 17.791 0 0 1 252.179 25.817 A 14.71 14.71 0 0 1 254 25.702 A 16.66 16.66 0 0 1 256.621 25.899 A 13.061 13.061 0 0 1 258.7 26.402 L 258.7 89.902 L 294 89.902 A 3.179 3.179 0 0 1 294.29 90.518 Q 294.513 91.141 294.619 92.047 A 12.025 12.025 0 0 1 294.65 92.352 Q 294.8 94.002 294.7 95.752 A 9.457 9.457 0 0 1 294.564 96.926 Q 294.452 97.531 294.261 98.033 A 4.637 4.637 0 0 1 294 98.602 Z M 694.2 91.402 A 7.247 7.247 0 0 0 697.487 90.577 Q 699.024 89.803 700.55 88.302 Q 703.334 85.562 705.454 81.104 A 38.332 38.332 0 0 0 706 79.902 Q 705.6 77.602 705.6 75.202 A 33.223 33.223 0 0 1 706.278 68.341 A 25.908 25.908 0 0 1 708.4 62.152 A 22.864 22.864 0 0 1 713.333 55.455 A 21.462 21.462 0 0 1 716.15 53.252 A 19.905 19.905 0 0 1 726.215 50.035 A 24.374 24.374 0 0 1 727.5 50.002 A 21.597 21.597 0 0 1 733.168 50.724 A 18.904 18.904 0 0 1 736.25 51.852 Q 740.2 53.702 742.7 57.202 A 8.482 8.482 0 0 1 738.567 62.311 A 12.635 12.635 0 0 1 736.9 63.102 Q 733.6 58.602 727.8 58.602 Q 722 58.602 718.45 62.952 A 14.9 14.9 0 0 0 715.654 68.528 Q 714.9 71.291 714.9 74.702 A 21.11 21.11 0 0 0 715.526 79.98 A 15.233 15.233 0 0 0 719.35 86.902 A 14.443 14.443 0 0 0 726.166 90.8 Q 728.468 91.414 731.208 91.491 A 28.275 28.275 0 0 0 732 91.502 Q 733.3 91.502 734.15 92.752 A 4.729 4.729 0 0 1 734.843 94.389 Q 734.989 95.036 734.999 95.787 A 8.362 8.362 0 0 1 735 95.902 A 6.153 6.153 0 0 1 734.888 97.113 Q 734.673 98.18 734.05 98.902 Q 733.1 100.002 731.4 100.002 Q 724.3 100.002 718.8 97.402 A 22.493 22.493 0 0 1 711.803 92.337 A 21.45 21.45 0 0 1 710 90.102 A 24.509 24.509 0 0 1 705.49 95.533 A 17.539 17.539 0 0 1 693.5 100.002 A 2.33 2.33 0 0 1 691.69 99.179 A 3.397 3.397 0 0 1 691.4 98.802 A 4.494 4.494 0 0 1 690.788 97.381 Q 690.6 96.624 690.6 95.702 A 7.506 7.506 0 0 1 690.754 94.106 Q 691.345 91.402 694.2 91.402 Z M 298.7 91.402 Q 302 91.402 305.15 88.252 A 21.238 21.238 0 0 0 308.021 84.63 Q 309.383 82.493 310.5 79.802 Q 310.1 77.402 310.1 74.902 A 28.585 28.585 0 0 1 310.975 67.703 A 23.906 23.906 0 0 1 313.2 62.102 Q 316.3 56.502 321.65 53.252 A 22.534 22.534 0 0 1 332.764 50.018 A 27.055 27.055 0 0 1 333.7 50.002 A 23.62 23.62 0 0 1 341.505 51.263 A 21.504 21.504 0 0 1 345.7 53.252 Q 351 56.502 354.05 62.102 A 25.077 25.077 0 0 1 356.906 71.375 A 31.379 31.379 0 0 1 357.1 74.902 A 29.158 29.158 0 0 1 356.135 82.527 A 24.884 24.884 0 0 1 354.05 87.802 Q 351 93.502 345.75 96.752 A 21.784 21.784 0 0 1 335.992 99.906 A 26.896 26.896 0 0 1 333.7 100.002 A 24.267 24.267 0 0 1 326.524 98.967 A 21.737 21.737 0 0 1 322.65 97.352 Q 317.7 94.702 314.5 90.102 A 24.509 24.509 0 0 1 309.99 95.533 A 17.539 17.539 0 0 1 298 100.002 A 2.33 2.33 0 0 1 296.19 99.179 A 3.397 3.397 0 0 1 295.9 98.802 A 4.494 4.494 0 0 1 295.288 97.381 Q 295.1 96.624 295.1 95.702 A 7.506 7.506 0 0 1 295.254 94.106 Q 295.845 91.402 298.7 91.402 Z M 54.39 99.179 A 2.33 2.33 0 0 0 56.2 100.002 A 26.445 26.445 0 0 0 58.795 99.873 Q 63.062 99.452 67.513 97.658 A 45.586 45.586 0 0 0 74.6 94.002 A 17.771 17.771 0 0 0 77.325 96.226 A 21.465 21.465 0 0 0 81.6 98.402 Q 85.8 100.002 90.6 100.002 A 4.391 4.391 0 0 0 91.447 99.924 A 2.913 2.913 0 0 0 93.2 98.902 A 3.452 3.452 0 0 0 93.562 98.361 Q 93.861 97.811 93.994 97.113 A 6.484 6.484 0 0 0 94.1 95.902 Q 94.1 94.835 93.873 93.996 A 4.382 4.382 0 0 0 93.3 92.702 A 3.39 3.39 0 0 0 93.173 92.524 Q 92.776 92.004 92.246 91.748 A 2.604 2.604 0 0 0 91.1 91.502 A 22.986 22.986 0 0 1 89.417 91.442 Q 87.628 91.311 86.116 90.89 A 11.337 11.337 0 0 1 82.5 89.202 Q 91.4 83.002 95.15 77.702 Q 98.9 72.402 98.9 66.002 A 20.946 20.946 0 0 0 98.714 63.172 A 16.348 16.348 0 0 0 97 57.702 Q 95.1 54.102 91.7 52.052 Q 88.3 50.002 83.9 50.002 A 19.562 19.562 0 0 0 83.738 50.002 A 16.28 16.28 0 0 0 74.6 52.752 A 17.863 17.863 0 0 0 72.103 54.772 A 19.23 19.23 0 0 0 68.2 60.252 A 22.126 22.126 0 0 0 66.466 65.407 A 28.397 28.397 0 0 0 65.9 71.202 Q 65.9 80.402 69.8 87.202 A 55.668 55.668 0 0 1 67.833 88.283 Q 65.038 89.743 62.8 90.452 A 21.987 21.987 0 0 1 61.842 90.732 A 19.075 19.075 0 0 1 56.9 91.402 Q 54.045 91.402 53.454 94.106 A 7.506 7.506 0 0 0 53.3 95.702 Q 53.3 96.624 53.488 97.381 A 4.494 4.494 0 0 0 54.1 98.802 A 3.397 3.397 0 0 0 54.39 99.179 Z M 439.39 99.179 A 2.33 2.33 0 0 0 441.2 100.002 A 26.445 26.445 0 0 0 443.795 99.873 Q 448.062 99.452 452.513 97.658 A 45.586 45.586 0 0 0 459.6 94.002 A 17.771 17.771 0 0 0 462.325 96.226 A 21.465 21.465 0 0 0 466.6 98.402 Q 470.8 100.002 475.6 100.002 A 4.391 4.391 0 0 0 476.447 99.924 A 2.913 2.913 0 0 0 478.2 98.902 A 3.452 3.452 0 0 0 478.562 98.361 Q 478.861 97.811 478.994 97.113 A 6.484 6.484 0 0 0 479.1 95.902 Q 479.1 94.835 478.873 93.996 A 4.382 4.382 0 0 0 478.3 92.702 A 3.39 3.39 0 0 0 478.173 92.524 Q 477.776 92.004 477.246 91.748 A 2.604 2.604 0 0 0 476.1 91.502 A 22.986 22.986 0 0 1 474.417 91.442 Q 472.628 91.311 471.116 90.89 A 11.337 11.337 0 0 1 467.5 89.202 Q 476.4 83.002 480.15 77.702 Q 483.9 72.402 483.9 66.002 A 20.946 20.946 0 0 0 483.714 63.172 A 16.348 16.348 0 0 0 482 57.702 Q 480.1 54.102 476.7 52.052 Q 473.3 50.002 468.9 50.002 A 19.562 19.562 0 0 0 468.738 50.002 A 16.28 16.28 0 0 0 459.6 52.752 A 17.863 17.863 0 0 0 457.103 54.772 A 19.23 19.23 0 0 0 453.2 60.252 A 22.126 22.126 0 0 0 451.466 65.407 A 28.397 28.397 0 0 0 450.9 71.202 Q 450.9 80.402 454.8 87.202 A 55.668 55.668 0 0 1 452.833 88.283 Q 450.038 89.743 447.8 90.452 A 21.987 21.987 0 0 1 446.842 90.732 A 19.075 19.075 0 0 1 441.9 91.402 Q 439.045 91.402 438.454 94.106 A 7.506 7.506 0 0 0 438.3 95.702 Q 438.3 96.624 438.488 97.381 A 4.494 4.494 0 0 0 439.1 98.802 A 3.397 3.397 0 0 0 439.39 99.179 Z M 185.835 62.015 A 416.054 416.054 0 0 0 185.85 62.702 Q 186 69.502 186.3 73.902 A 131.263 131.263 0 0 0 193.679 59.901 A 104.779 104.779 0 0 0 197.8 49.252 A 80.319 80.319 0 0 0 201.239 33.716 A 69.028 69.028 0 0 0 201.7 25.802 A 58.607 58.607 0 0 0 201.533 21.213 Q 201.178 16.711 200.071 13.733 A 15.324 15.324 0 0 0 199.8 13.052 Q 198.746 10.583 197.2 9.484 A 4.716 4.716 0 0 0 194.4 8.602 A 5.587 5.587 0 0 0 189.795 10.952 Q 189.121 11.824 188.581 13.019 A 13.779 13.779 0 0 0 188.5 13.202 A 20.885 20.885 0 0 0 187.799 15.177 Q 187.256 16.97 186.85 19.252 A 43.832 43.832 0 0 0 186.483 21.782 Q 186.146 24.636 185.974 28.541 A 149.044 149.044 0 0 0 185.95 29.102 Q 185.726 34.648 185.703 43.315 A 767.186 767.186 0 0 0 185.7 45.402 Q 185.7 55.379 185.835 62.015 Z M 671.035 62.015 A 416.054 416.054 0 0 0 671.05 62.702 Q 671.2 69.502 671.5 73.902 A 131.263 131.263 0 0 0 678.879 59.901 A 104.779 104.779 0 0 0 683 49.252 A 80.319 80.319 0 0 0 686.439 33.716 A 69.028 69.028 0 0 0 686.9 25.802 A 58.607 58.607 0 0 0 686.733 21.213 Q 686.378 16.711 685.271 13.733 A 15.324 15.324 0 0 0 685 13.052 Q 683.946 10.583 682.4 9.484 A 4.716 4.716 0 0 0 679.6 8.602 A 5.587 5.587 0 0 0 674.995 10.952 Q 674.321 11.824 673.781 13.019 A 13.779 13.779 0 0 0 673.7 13.202 A 20.885 20.885 0 0 0 672.999 15.177 Q 672.456 16.97 672.05 19.252 A 43.832 43.832 0 0 0 671.683 21.782 Q 671.346 24.636 671.174 28.541 A 149.044 149.044 0 0 0 671.15 29.102 Q 670.926 34.648 670.903 43.315 A 767.186 767.186 0 0 0 670.9 45.402 Q 670.9 55.379 671.035 62.015 Z M 828.435 62.015 A 416.054 416.054 0 0 0 828.45 62.702 Q 828.6 69.502 828.9 73.902 A 131.263 131.263 0 0 0 836.279 59.901 A 104.779 104.779 0 0 0 840.4 49.252 A 80.319 80.319 0 0 0 843.839 33.716 A 69.028 69.028 0 0 0 844.3 25.802 A 58.607 58.607 0 0 0 844.133 21.213 Q 843.778 16.711 842.671 13.733 A 15.324 15.324 0 0 0 842.4 13.052 Q 841.346 10.583 839.8 9.484 A 4.716 4.716 0 0 0 837 8.602 A 5.587 5.587 0 0 0 832.395 10.952 Q 831.721 11.824 831.181 13.019 A 13.779 13.779 0 0 0 831.1 13.202 A 20.885 20.885 0 0 0 830.399 15.177 Q 829.856 16.97 829.45 19.252 A 43.832 43.832 0 0 0 829.083 21.782 Q 828.746 24.636 828.574 28.541 A 149.044 149.044 0 0 0 828.55 29.102 Q 828.326 34.648 828.303 43.315 A 767.186 767.186 0 0 0 828.3 45.402 Q 828.3 55.379 828.435 62.015 Z M 24.7 35.002 L 9.3 35.002 L 9.3 61.802 L 21.2 61.802 A 31.923 31.923 0 0 0 26.74 61.304 A 35.586 35.586 0 0 0 27.55 61.152 Q 30.8 60.502 33.5 58.952 A 12.218 12.218 0 0 0 37.893 54.613 A 13.845 13.845 0 0 0 37.9 54.602 Q 39.414 52.108 39.58 48.424 A 20.547 20.547 0 0 0 39.6 47.502 A 14.113 14.113 0 0 0 39.104 43.651 A 10.149 10.149 0 0 0 35.4 38.202 A 15.194 15.194 0 0 0 29.34 35.471 A 21.767 21.767 0 0 0 24.7 35.002 Z M 148.6 75.802 L 148.6 64.602 Q 146.6 61.902 143.5 60.252 A 13.788 13.788 0 0 0 138.788 58.711 A 12.989 12.989 0 0 0 137.1 58.602 A 13.623 13.623 0 0 0 132.288 59.434 A 12.553 12.553 0 0 0 129.5 60.902 A 15.433 15.433 0 0 0 124.862 66.073 A 18.659 18.659 0 0 0 124.3 67.152 A 19.063 19.063 0 0 0 122.625 72.831 A 24.501 24.501 0 0 0 122.4 76.202 A 25.053 25.053 0 0 0 122.767 80.628 Q 123.492 84.662 125.65 87.352 A 10.583 10.583 0 0 0 133.382 91.353 A 14.979 14.979 0 0 0 134.6 91.402 A 14.947 14.947 0 0 0 139.397 90.664 A 12.407 12.407 0 0 0 144.75 87.102 A 14.735 14.735 0 0 0 148.181 80.129 A 21.23 21.23 0 0 0 148.6 75.802 Z M 633.8 75.802 L 633.8 64.602 Q 631.8 61.902 628.7 60.252 A 13.788 13.788 0 0 0 623.988 58.711 A 12.989 12.989 0 0 0 622.3 58.602 A 13.623 13.623 0 0 0 617.488 59.434 A 12.553 12.553 0 0 0 614.7 60.902 A 15.433 15.433 0 0 0 610.062 66.073 A 18.659 18.659 0 0 0 609.5 67.152 A 19.063 19.063 0 0 0 607.825 72.831 A 24.501 24.501 0 0 0 607.6 76.202 A 25.053 25.053 0 0 0 607.967 80.628 Q 608.692 84.662 610.85 87.352 A 10.583 10.583 0 0 0 618.582 91.353 A 14.979 14.979 0 0 0 619.8 91.402 A 14.947 14.947 0 0 0 624.597 90.664 A 12.407 12.407 0 0 0 629.95 87.102 A 14.735 14.735 0 0 0 633.381 80.129 A 21.23 21.23 0 0 0 633.8 75.802 Z M 899.1 75.802 L 899.1 64.602 Q 897.1 61.902 894 60.252 A 13.788 13.788 0 0 0 889.288 58.711 A 12.989 12.989 0 0 0 887.6 58.602 A 13.623 13.623 0 0 0 882.788 59.434 A 12.553 12.553 0 0 0 880 60.902 A 15.433 15.433 0 0 0 875.362 66.073 A 18.659 18.659 0 0 0 874.8 67.152 A 19.063 19.063 0 0 0 873.125 72.831 A 24.501 24.501 0 0 0 872.9 76.202 A 25.053 25.053 0 0 0 873.267 80.628 Q 873.992 84.662 876.15 87.352 A 10.583 10.583 0 0 0 883.882 91.353 A 14.979 14.979 0 0 0 885.1 91.402 A 14.947 14.947 0 0 0 889.897 90.664 A 12.407 12.407 0 0 0 895.25 87.102 A 14.735 14.735 0 0 0 898.681 80.129 A 21.23 21.23 0 0 0 899.1 75.802 Z M 333.6 91.402 A 14.733 14.733 0 0 0 338.379 90.659 A 12.349 12.349 0 0 0 343.85 86.902 Q 347.7 82.402 347.7 74.902 A 21.716 21.716 0 0 0 347.292 70.615 A 18.278 18.278 0 0 0 346.6 68.102 A 30.64 30.64 0 0 1 339.964 67.181 A 25.689 25.689 0 0 1 335.75 65.702 A 20.974 20.974 0 0 1 331.175 62.913 A 17.458 17.458 0 0 1 328.1 59.702 A 12.848 12.848 0 0 0 322.113 64.924 A 16.032 16.032 0 0 0 321.8 65.452 A 17.286 17.286 0 0 0 319.837 71.041 A 23.431 23.431 0 0 0 319.5 75.102 A 22.556 22.556 0 0 0 320.041 80.183 A 15.527 15.527 0 0 0 323.35 86.902 A 12.604 12.604 0 0 0 332.567 91.371 A 17.351 17.351 0 0 0 333.6 91.402 Z M 990.4 91.402 A 14.733 14.733 0 0 0 995.179 90.659 A 12.349 12.349 0 0 0 1000.65 86.902 Q 1004.5 82.402 1004.5 74.902 A 21.716 21.716 0 0 0 1004.092 70.615 A 18.278 18.278 0 0 0 1003.4 68.102 A 30.64 30.64 0 0 1 996.764 67.181 A 25.689 25.689 0 0 1 992.55 65.702 A 20.974 20.974 0 0 1 987.975 62.913 A 17.458 17.458 0 0 1 984.9 59.702 A 12.848 12.848 0 0 0 978.913 64.924 A 16.032 16.032 0 0 0 978.6 65.452 A 17.286 17.286 0 0 0 976.637 71.041 A 23.431 23.431 0 0 0 976.3 75.102 A 22.556 22.556 0 0 0 976.841 80.183 A 15.527 15.527 0 0 0 980.15 86.902 A 12.604 12.604 0 0 0 989.367 91.371 A 17.351 17.351 0 0 0 990.4 91.402 Z M 76.016 80.02 A 16.697 16.697 0 0 0 77.4 83.002 Q 82.017 79.805 84.944 76.71 A 26.229 26.229 0 0 0 87.05 74.202 A 20.008 20.008 0 0 0 88.843 71.293 Q 89.691 69.585 90.009 67.945 A 10.195 10.195 0 0 0 90.2 66.002 A 11.946 11.946 0 0 0 89.998 63.734 Q 89.743 62.418 89.168 61.387 A 6.361 6.361 0 0 0 88.45 60.352 A 5.718 5.718 0 0 0 84.804 58.386 A 8.254 8.254 0 0 0 83.6 58.302 A 7.438 7.438 0 0 0 77.894 60.887 A 10.809 10.809 0 0 0 77.15 61.802 Q 74.6 65.302 74.6 70.402 Q 74.6 76.02 76.016 80.02 Z M 461.016 80.02 A 16.697 16.697 0 0 0 462.4 83.002 Q 467.017 79.805 469.944 76.71 A 26.229 26.229 0 0 0 472.05 74.202 A 20.008 20.008 0 0 0 473.843 71.293 Q 474.691 69.585 475.009 67.945 A 10.195 10.195 0 0 0 475.2 66.002 A 11.946 11.946 0 0 0 474.998 63.734 Q 474.743 62.418 474.168 61.387 A 6.361 6.361 0 0 0 473.45 60.352 A 5.718 5.718 0 0 0 469.804 58.386 A 8.254 8.254 0 0 0 468.6 58.302 A 7.438 7.438 0 0 0 462.894 60.887 A 10.809 10.809 0 0 0 462.15 61.802 Q 459.6 65.302 459.6 70.402 Q 459.6 76.02 461.016 80.02 Z" vector-effect="non-scaling-stroke"/></g></svg>